<?xml version="1.0" encoding="UTF-8"?>
<svg version="1.1" xmlns="http://www.w3.org/2000/svg" width="428" height="284">
<path d="M0 0 C141.24 0 282.48 0 428 0 C428 93.72 428 187.44 428 284 C286.76 284 145.52 284 0 284 C0 190.28 0 96.56 0 0 Z " fill="#DCDCDC" transform="translate(0,0)"/>
<path d="M0 0 C1.14819214 -0.00997513 2.29638428 -0.01995026 3.47937012 -0.03022766 C4.7402092 -0.03089233 6.00104828 -0.03155701 7.3000946 -0.03224182 C8.64054324 -0.03986288 9.98098749 -0.04829029 11.32142639 -0.0574646 C14.96410583 -0.07942399 18.60670132 -0.08821059 22.24943948 -0.09329104 C24.5258021 -0.09693342 26.8021427 -0.1031729 29.07849693 -0.11029243 C37.02167604 -0.13479353 44.9647898 -0.1478399 52.90800476 -0.15138245 C60.30908567 -0.15501658 67.70975158 -0.18490107 75.11070567 -0.22678703 C81.46666042 -0.26149606 87.82247771 -0.276931 94.17852658 -0.27762848 C97.9738697 -0.27842121 101.76879031 -0.28715673 105.56403542 -0.31562614 C109.13552955 -0.34181736 112.7062513 -0.34400708 116.2777977 -0.3279705 C118.20897015 -0.32529357 120.14012763 -0.34733354 122.07116699 -0.37016296 C131.54343087 -0.29020476 131.54343087 -0.29020476 135.2416687 2.62411499 C138.01582269 5.91064641 138.60104386 8.19551882 138.62573242 12.35969543 C138.63646538 13.6045446 138.63646538 13.6045446 138.64741516 14.87454224 C138.65010406 15.7816243 138.65279297 16.68870636 138.65556335 17.62327576 C138.66213455 18.58128586 138.66870575 19.53929596 138.67547607 20.52633667 C138.69520508 23.70008927 138.7068695 26.87379462 138.71684265 30.04759216 C138.72091818 31.13082386 138.72499371 32.21405556 138.72919273 33.33011246 C138.75004964 39.0611324 138.76435423 44.79212841 138.77372742 50.5231781 C138.7848039 56.44726865 138.81921942 62.37098484 138.85889912 68.29494286 C138.88501721 72.84682422 138.89341488 77.39861562 138.8970089 81.95056534 C138.90188561 84.13467061 138.91353028 86.31877158 138.93204689 88.5028038 C138.95634042 91.55758818 138.95549127 94.61139353 138.9485321 97.66624451 C138.96774719 99.02079491 138.96774719 99.02079491 138.98735046 100.40270996 C138.95329952 104.50000941 138.83526718 106.6979065 136.63668823 110.24964905 C132.96236772 113.69647266 130.89375319 114.5247134 125.95039368 114.53485107 C124.80075638 114.54193588 123.65111908 114.54902069 122.46664429 114.55632019 C120.5730291 114.55260406 120.5730291 114.55260406 118.64115906 114.54881287 C117.29908972 114.55315979 115.95702287 114.55834288 114.61495972 114.56430054 C110.96819583 114.57770536 107.32153549 114.57826747 103.67475176 114.57573724 C100.63053691 114.57466832 97.58634309 114.57954896 94.54213274 114.58434266 C87.359468 114.59544341 80.17685556 114.59587236 72.9941864 114.58982849 C65.58523955 114.58379002 58.17648267 114.5960951 50.76756823 114.61739856 C44.40653575 114.63501621 38.04556371 114.64101559 31.68450773 114.63776082 C27.88540508 114.63594774 24.08643789 114.63858627 20.28735733 114.65247536 C16.71354389 114.66505148 13.14002633 114.66311188 9.56621742 114.65006447 C7.63131566 114.64657123 5.69640487 114.65787887 3.76153564 114.66963196 C2.02862022 114.65911049 2.02862022 114.65911049 0.26069641 114.64837646 C-1.24197312 114.64862808 -1.24197312 114.64862808 -2.77499962 114.64888477 C-6.03332262 114.20431209 -7.88339841 113.21352555 -10.5214386 111.27415466 C-12.56864833 108.20334006 -12.77308651 107.57518567 -12.78886414 104.11268616 C-12.7973941 103.2659584 -12.80592407 102.41923065 -12.81471252 101.54684448 C-12.81380615 100.62106094 -12.81289978 99.6952774 -12.81196594 98.74143982 C-12.81868317 97.76392258 -12.82540039 96.78640533 -12.83232117 95.77926636 C-12.85135417 92.5405319 -12.85522807 89.3020041 -12.8573761 86.06321716 C-12.86380041 83.81503717 -12.87052849 81.56685802 -12.87754822 79.31867981 C-12.88953431 74.6026465 -12.89322768 69.88668651 -12.89204407 65.17063904 C-12.89184082 59.1254554 -12.91914306 53.08074159 -12.95358849 47.03566933 C-12.97581859 42.39112689 -12.9798828 37.7466982 -12.97882462 33.102108 C-12.98118643 30.87335465 -12.99004248 28.64459844 -13.00548935 26.41589737 C-13.02506987 23.29881586 -13.01934205 20.1827563 -13.00727844 17.06565857 C-13.01851746 16.14392349 -13.02975647 15.22218842 -13.04133606 14.27252197 C-13.00061789 10.13532641 -12.89152458 7.87400075 -10.67857361 4.28718567 C-7.00486783 0.85889601 -4.93201445 0.02294264 0 0 Z " fill="#BABABA" transform="translate(152.5214385986328,82.72584533691406)"/>
<path d="M0 0 C3.40143981 0.69813502 4.42420474 2.00511651 6.65625 4.64453125 C7.82414062 6.01544922 7.82414062 6.01544922 9.015625 7.4140625 C12.14855734 11.2815799 15.23764885 15.18045278 18.2878418 19.11352539 C22.41870003 24.43082218 26.74224701 29.56607392 31.12109375 34.6796875 C31.91644531 35.61683594 32.71179688 36.55398437 33.53125 37.51953125 C34.29824219 38.38964844 35.06523437 39.25976562 35.85546875 40.15625 C37.53125 42.51953125 37.53125 42.51953125 37.40625 46.26953125 C37.1175 47.34203125 36.82875 48.41453125 36.53125 49.51953125 C33.15970072 51.20530589 29.33956092 50.66671253 25.63110352 50.66479492 C24.70904114 50.66815353 23.78697876 50.67151215 22.8369751 50.67497253 C19.77802191 50.68449946 16.71912336 50.68642649 13.66015625 50.6875 C11.54027788 50.69071124 9.42039974 50.69407521 7.30052185 50.69758606 C2.85260504 50.7035816 -1.59529232 50.70542551 -6.04321289 50.70483398 C-11.751058 50.70473231 -17.45877886 50.7183882 -23.16659451 50.73560619 C-27.54597042 50.74670801 -31.92531612 50.74875376 -36.30470467 50.74822426 C-38.40950003 50.74940698 -40.51429611 50.75384503 -42.61907768 50.76155663 C-45.55921077 50.77132034 -48.4990718 50.76849286 -51.43920898 50.76245117 C-52.75079735 50.77088043 -52.75079735 50.77088043 -54.08888245 50.77947998 C-60.12627468 50.74784813 -60.12627468 50.74784813 -63.46875 48.51953125 C-64.15625 45.45703125 -64.15625 45.45703125 -63.46875 41.51953125 C-61.81080862 39.19841332 -59.94240441 37.2355755 -57.9609375 35.18359375 C-55.02489576 32.04506637 -52.40815172 28.72952657 -49.78125 25.33203125 C-48.44783994 23.61077206 -47.11326243 21.89112508 -45.76416016 20.18212891 C-44.88805489 19.05768924 -44.03388009 17.91587087 -43.20068359 16.75927734 C-41.27680225 14.19885625 -40.05394966 12.67564397 -36.90625 11.8359375 C-33.46063232 12.80225656 -32.48979712 14.55177602 -30.46875 17.45703125 C-27.84412134 21.40107991 -27.84412134 21.40107991 -23.71875 23.3359375 C-22.605 23.42681641 -22.605 23.42681641 -21.46875 23.51953125 C-20.29940791 22.14813372 -19.13047511 20.77638552 -17.96337891 19.40307617 C-16.96197944 18.22485331 -15.95903294 17.04794367 -14.95458984 15.87231445 C-11.21320567 11.47022795 -7.70256125 6.935979 -4.3203125 2.25 C-2.46875 0.51953125 -2.46875 0.51953125 0 0 Z " fill="#DCDCDC" transform="translate(228.46875,123.48046875)"/>
<path d="M0 0 C4.70149254 2.40298507 4.70149254 2.40298507 6 5 C6.68571429 11.97142857 6.68571429 11.97142857 4 16 C0.87169272 18.08553819 -1.21866933 18.74893845 -4.99609375 18.4765625 C-8.87441649 17.55423234 -10.42117303 16.09459236 -13 13 C-13.79895491 10.14905299 -13.78949878 7.85256857 -13 5 C-8.77445541 -0.22633146 -6.49593043 -1.52845422 0 0 Z " fill="#DADADA" transform="translate(198,103)"/>
</svg>
